<mxfile host="app.diagrams.net" modified="2022-11-21T17:05:21.465Z" agent="5.0 (Macintosh; Intel Mac OS X 10_15_7) AppleWebKit/537.36 (KHTML, like Gecko) Chrome/107.0.0.0 Safari/537.36" etag="6OXZykuB_RdZXDRqXC1G" version="20.5.3" type="github">
  <diagram id="ceIqSiCKN5g5D9J3uBrV" name="Seite-1">
    <mxGraphModel dx="1945" dy="-530" grid="1" gridSize="10" guides="1" tooltips="1" connect="1" arrows="1" fold="1" page="1" pageScale="1" pageWidth="827" pageHeight="1169" math="0" shadow="0">
      <root>
        <mxCell id="0" />
        <mxCell id="1" parent="0" />
        <mxCell id="LKf0_QzgHsAnqF3-CHD4-48" value="" style="rounded=0;whiteSpace=wrap;html=1;fontSize=16;fillColor=none;movable=0;resizable=0;rotatable=0;deletable=0;editable=0;connectable=0;" vertex="1" parent="1">
          <mxGeometry x="-40" y="1340" width="910" height="520" as="geometry" />
        </mxCell>
        <mxCell id="LKf0_QzgHsAnqF3-CHD4-2" value="" style="ellipse;fillColor=strokeColor;" vertex="1" parent="1">
          <mxGeometry x="1030" y="1370" width="40" height="40" as="geometry" />
        </mxCell>
        <mxCell id="LKf0_QzgHsAnqF3-CHD4-4" value="Artikel suchen" style="rounded=1;whiteSpace=wrap;html=1;fillColor=#dae8fc;strokeColor=#6c8ebf;" vertex="1" parent="1">
          <mxGeometry x="950" y="1430" width="100" height="50" as="geometry" />
        </mxCell>
        <mxCell id="LKf0_QzgHsAnqF3-CHD4-8" value="" style="rhombus;whiteSpace=wrap;html=1;fillColor=#1ba1e2;fontColor=#ffffff;strokeColor=#006EAF;" vertex="1" parent="1">
          <mxGeometry x="960" y="1370" width="40" height="40" as="geometry" />
        </mxCell>
        <mxCell id="LKf0_QzgHsAnqF3-CHD4-10" value="Artikel ansehen" style="rounded=1;whiteSpace=wrap;html=1;fillColor=#dae8fc;strokeColor=#6c8ebf;" vertex="1" parent="1">
          <mxGeometry x="1070" y="1430" width="100" height="50" as="geometry" />
        </mxCell>
        <mxCell id="LKf0_QzgHsAnqF3-CHD4-14" value="Warenkorb&lt;br&gt;öffnen" style="rounded=1;whiteSpace=wrap;html=1;fillColor=#dae8fc;strokeColor=#6c8ebf;" vertex="1" parent="1">
          <mxGeometry x="950" y="1780" width="100" height="50" as="geometry" />
        </mxCell>
        <mxCell id="LKf0_QzgHsAnqF3-CHD4-16" value="Bestellung&lt;br&gt;bestätigen" style="rounded=1;whiteSpace=wrap;html=1;fillColor=#dae8fc;strokeColor=#6c8ebf;" vertex="1" parent="1">
          <mxGeometry x="950" y="1570" width="100" height="50" as="geometry" />
        </mxCell>
        <mxCell id="LKf0_QzgHsAnqF3-CHD4-18" value="Bezahlen" style="rounded=1;whiteSpace=wrap;html=1;fillColor=#dae8fc;strokeColor=#6c8ebf;" vertex="1" parent="1">
          <mxGeometry x="1070" y="1570" width="100" height="50" as="geometry" />
        </mxCell>
        <mxCell id="LKf0_QzgHsAnqF3-CHD4-20" value="Bestellstatus&lt;br&gt;überprüfen" style="rounded=1;whiteSpace=wrap;html=1;fillColor=#dae8fc;strokeColor=#6c8ebf;" vertex="1" parent="1">
          <mxGeometry x="950" y="1500" width="100" height="50" as="geometry" />
        </mxCell>
        <mxCell id="LKf0_QzgHsAnqF3-CHD4-22" value="Bestellung&lt;br&gt;empfangen" style="rounded=1;whiteSpace=wrap;html=1;fillColor=#dae8fc;strokeColor=#6c8ebf;" vertex="1" parent="1">
          <mxGeometry x="1070" y="1500" width="100" height="50" as="geometry" />
        </mxCell>
        <mxCell id="LKf0_QzgHsAnqF3-CHD4-23" value="" style="ellipse;html=1;shape=endState;fillColor=strokeColor;" vertex="1" parent="1">
          <mxGeometry x="1090" y="1370" width="40" height="40" as="geometry" />
        </mxCell>
        <mxCell id="LKf0_QzgHsAnqF3-CHD4-25" value="Kasse&lt;br&gt;öffnen" style="rounded=1;whiteSpace=wrap;html=1;fillColor=#dae8fc;strokeColor=#6c8ebf;" vertex="1" parent="1">
          <mxGeometry x="950" y="1640" width="100" height="50" as="geometry" />
        </mxCell>
        <mxCell id="LKf0_QzgHsAnqF3-CHD4-30" value="Warenkorb&lt;br&gt;ansehen" style="rounded=1;whiteSpace=wrap;html=1;fillColor=#dae8fc;strokeColor=#6c8ebf;" vertex="1" parent="1">
          <mxGeometry x="950" y="1712" width="100" height="50" as="geometry" />
        </mxCell>
        <mxCell id="LKf0_QzgHsAnqF3-CHD4-32" value="Warenkorb&lt;br&gt;bearbeiten" style="rounded=1;whiteSpace=wrap;html=1;fillColor=#dae8fc;strokeColor=#6c8ebf;" vertex="1" parent="1">
          <mxGeometry x="1070" y="1640" width="100" height="50" as="geometry" />
        </mxCell>
        <mxCell id="LKf0_QzgHsAnqF3-CHD4-35" value="Benutzer ist registriert&lt;br&gt;und angemeldet" style="shape=note2;boundedLbl=1;whiteSpace=wrap;html=1;size=18;verticalAlign=top;align=center;fillColor=#f5f5f5;fontColor=#333333;strokeColor=#666666;" vertex="1" parent="1">
          <mxGeometry x="1070" y="1780" width="130" height="70" as="geometry" />
        </mxCell>
        <mxCell id="LKf0_QzgHsAnqF3-CHD4-37" value="" style="html=1;points=[];perimeter=orthogonalPerimeter;fillColor=strokeColor;rotation=90;" vertex="1" parent="1">
          <mxGeometry x="1080" y="1310" width="5" height="80" as="geometry" />
        </mxCell>
        <mxCell id="LKf0_QzgHsAnqF3-CHD4-125" style="edgeStyle=orthogonalEdgeStyle;rounded=0;orthogonalLoop=1;jettySize=auto;html=1;entryX=0;entryY=0.5;entryDx=0;entryDy=0;endArrow=open;endFill=0;startSize=8;endSize=8;" edge="1" parent="1" source="LKf0_QzgHsAnqF3-CHD4-41" target="LKf0_QzgHsAnqF3-CHD4-94">
          <mxGeometry relative="1" as="geometry" />
        </mxCell>
        <mxCell id="LKf0_QzgHsAnqF3-CHD4-41" value="In Warenkorb&lt;br&gt;hinzufügen" style="rounded=1;whiteSpace=wrap;html=1;fillColor=#dae8fc;strokeColor=#6c8ebf;" vertex="1" parent="1">
          <mxGeometry x="500" y="1426" width="100" height="50" as="geometry" />
        </mxCell>
        <mxCell id="LKf0_QzgHsAnqF3-CHD4-42" value="" style="rounded=1;whiteSpace=wrap;html=1;fillColor=#dae8fc;strokeColor=#6c8ebf;" vertex="1" parent="1">
          <mxGeometry x="930" y="1860" width="100" height="50" as="geometry" />
        </mxCell>
        <mxCell id="LKf0_QzgHsAnqF3-CHD4-85" value="Artikel suchen" style="rounded=1;whiteSpace=wrap;html=1;fillColor=#dae8fc;strokeColor=#6c8ebf;" vertex="1" parent="1">
          <mxGeometry x="70" y="1426" width="100" height="50" as="geometry" />
        </mxCell>
        <mxCell id="LKf0_QzgHsAnqF3-CHD4-138" style="edgeStyle=orthogonalEdgeStyle;rounded=0;orthogonalLoop=1;jettySize=auto;html=1;entryX=0.5;entryY=0;entryDx=0;entryDy=0;endArrow=open;endFill=0;startSize=8;endSize=8;" edge="1" parent="1" source="LKf0_QzgHsAnqF3-CHD4-87" target="LKf0_QzgHsAnqF3-CHD4-88">
          <mxGeometry relative="1" as="geometry" />
        </mxCell>
        <mxCell id="LKf0_QzgHsAnqF3-CHD4-87" value="Bestellstatus&lt;br&gt;überprüfen" style="rounded=1;whiteSpace=wrap;html=1;fillColor=#dae8fc;strokeColor=#6c8ebf;" vertex="1" parent="1">
          <mxGeometry x="250" y="1700" width="100" height="50" as="geometry" />
        </mxCell>
        <mxCell id="LKf0_QzgHsAnqF3-CHD4-140" style="edgeStyle=orthogonalEdgeStyle;rounded=0;orthogonalLoop=1;jettySize=auto;html=1;entryX=1;entryY=0.5;entryDx=0;entryDy=0;endArrow=open;endFill=0;startSize=8;endSize=8;" edge="1" parent="1" source="LKf0_QzgHsAnqF3-CHD4-88" target="LKf0_QzgHsAnqF3-CHD4-139">
          <mxGeometry relative="1" as="geometry" />
        </mxCell>
        <mxCell id="LKf0_QzgHsAnqF3-CHD4-88" value="Bestellung&lt;br&gt;empfangen" style="rounded=1;whiteSpace=wrap;html=1;fillColor=#dae8fc;strokeColor=#6c8ebf;" vertex="1" parent="1">
          <mxGeometry x="250" y="1790" width="100" height="50" as="geometry" />
        </mxCell>
        <mxCell id="LKf0_QzgHsAnqF3-CHD4-136" style="edgeStyle=orthogonalEdgeStyle;rounded=0;orthogonalLoop=1;jettySize=auto;html=1;endArrow=open;endFill=0;startSize=8;endSize=8;" edge="1" parent="1" source="LKf0_QzgHsAnqF3-CHD4-89" target="LKf0_QzgHsAnqF3-CHD4-90">
          <mxGeometry relative="1" as="geometry" />
        </mxCell>
        <mxCell id="LKf0_QzgHsAnqF3-CHD4-89" value="Bestellung&lt;br&gt;bestätigen" style="rounded=1;whiteSpace=wrap;html=1;fillColor=#dae8fc;strokeColor=#6c8ebf;" vertex="1" parent="1">
          <mxGeometry x="530" y="1700" width="100" height="50" as="geometry" />
        </mxCell>
        <mxCell id="LKf0_QzgHsAnqF3-CHD4-137" style="edgeStyle=orthogonalEdgeStyle;rounded=0;orthogonalLoop=1;jettySize=auto;html=1;entryX=1;entryY=0.5;entryDx=0;entryDy=0;endArrow=open;endFill=0;startSize=8;endSize=8;" edge="1" parent="1" source="LKf0_QzgHsAnqF3-CHD4-90" target="LKf0_QzgHsAnqF3-CHD4-87">
          <mxGeometry relative="1" as="geometry" />
        </mxCell>
        <mxCell id="LKf0_QzgHsAnqF3-CHD4-90" value="Bezahlen" style="rounded=1;whiteSpace=wrap;html=1;fillColor=#dae8fc;strokeColor=#6c8ebf;" vertex="1" parent="1">
          <mxGeometry x="393.5" y="1700" width="100" height="50" as="geometry" />
        </mxCell>
        <mxCell id="LKf0_QzgHsAnqF3-CHD4-135" style="edgeStyle=orthogonalEdgeStyle;rounded=0;orthogonalLoop=1;jettySize=auto;html=1;endArrow=open;endFill=0;startSize=8;endSize=8;" edge="1" parent="1" source="LKf0_QzgHsAnqF3-CHD4-91" target="LKf0_QzgHsAnqF3-CHD4-89">
          <mxGeometry relative="1" as="geometry" />
        </mxCell>
        <mxCell id="LKf0_QzgHsAnqF3-CHD4-91" value="Kasse&lt;br&gt;öffnen" style="rounded=1;whiteSpace=wrap;html=1;fillColor=#dae8fc;strokeColor=#6c8ebf;" vertex="1" parent="1">
          <mxGeometry x="670" y="1700" width="100" height="50" as="geometry" />
        </mxCell>
        <mxCell id="LKf0_QzgHsAnqF3-CHD4-133" style="edgeStyle=orthogonalEdgeStyle;rounded=0;orthogonalLoop=1;jettySize=auto;html=1;entryX=-0.02;entryY=0.903;entryDx=0;entryDy=0;entryPerimeter=0;endArrow=open;endFill=0;startSize=8;endSize=8;" edge="1" parent="1" source="LKf0_QzgHsAnqF3-CHD4-92" target="LKf0_QzgHsAnqF3-CHD4-131">
          <mxGeometry relative="1" as="geometry" />
        </mxCell>
        <mxCell id="LKf0_QzgHsAnqF3-CHD4-92" value="Warenkorb&lt;br&gt;bearbeiten" style="rounded=1;whiteSpace=wrap;html=1;fillColor=#dae8fc;strokeColor=#6c8ebf;" vertex="1" parent="1">
          <mxGeometry x="610" y="1550" width="100" height="50" as="geometry" />
        </mxCell>
        <mxCell id="LKf0_QzgHsAnqF3-CHD4-132" style="edgeStyle=orthogonalEdgeStyle;rounded=0;orthogonalLoop=1;jettySize=auto;html=1;entryX=-0.18;entryY=0.153;entryDx=0;entryDy=0;entryPerimeter=0;endArrow=open;endFill=0;startSize=8;endSize=8;" edge="1" parent="1" source="LKf0_QzgHsAnqF3-CHD4-93" target="LKf0_QzgHsAnqF3-CHD4-131">
          <mxGeometry relative="1" as="geometry" />
        </mxCell>
        <mxCell id="LKf0_QzgHsAnqF3-CHD4-93" value="Warenkorb&lt;br&gt;ansehen" style="rounded=1;whiteSpace=wrap;html=1;fillColor=#dae8fc;strokeColor=#6c8ebf;" vertex="1" parent="1">
          <mxGeometry x="730" y="1550" width="100" height="50" as="geometry" />
        </mxCell>
        <mxCell id="LKf0_QzgHsAnqF3-CHD4-130" style="edgeStyle=orthogonalEdgeStyle;rounded=0;orthogonalLoop=1;jettySize=auto;html=1;entryX=0.1;entryY=0.503;entryDx=0;entryDy=0;entryPerimeter=0;endArrow=open;endFill=0;startSize=8;endSize=8;" edge="1" parent="1" source="LKf0_QzgHsAnqF3-CHD4-94" target="LKf0_QzgHsAnqF3-CHD4-126">
          <mxGeometry relative="1" as="geometry" />
        </mxCell>
        <mxCell id="LKf0_QzgHsAnqF3-CHD4-94" value="Warenkorb&lt;br&gt;öffnen" style="rounded=1;whiteSpace=wrap;html=1;fillColor=#dae8fc;strokeColor=#6c8ebf;" vertex="1" parent="1">
          <mxGeometry x="670" y="1426" width="100" height="50" as="geometry" />
        </mxCell>
        <mxCell id="LKf0_QzgHsAnqF3-CHD4-99" style="edgeStyle=none;curved=1;rounded=0;orthogonalLoop=1;jettySize=auto;html=1;exitX=1;exitY=0.5;exitDx=0;exitDy=0;entryX=0;entryY=0.5;entryDx=0;entryDy=0;fontSize=12;endArrow=open;startSize=8;endSize=8;sourcePerimeterSpacing=8;targetPerimeterSpacing=8;" edge="1" parent="1" source="LKf0_QzgHsAnqF3-CHD4-98" target="LKf0_QzgHsAnqF3-CHD4-85">
          <mxGeometry relative="1" as="geometry" />
        </mxCell>
        <mxCell id="LKf0_QzgHsAnqF3-CHD4-98" value="" style="ellipse;fillColor=strokeColor;" vertex="1" parent="1">
          <mxGeometry x="10" y="1436" width="30" height="30" as="geometry" />
        </mxCell>
        <mxCell id="LKf0_QzgHsAnqF3-CHD4-117" style="edgeStyle=orthogonalEdgeStyle;rounded=0;orthogonalLoop=1;jettySize=auto;html=1;entryX=0;entryY=0.5;entryDx=0;entryDy=0;endArrow=open;endFill=0;startSize=8;endSize=8;" edge="1" parent="1" target="LKf0_QzgHsAnqF3-CHD4-123">
          <mxGeometry relative="1" as="geometry">
            <mxPoint x="170" y="1451" as="sourcePoint" />
          </mxGeometry>
        </mxCell>
        <mxCell id="LKf0_QzgHsAnqF3-CHD4-124" style="edgeStyle=orthogonalEdgeStyle;rounded=0;orthogonalLoop=1;jettySize=auto;html=1;entryX=0;entryY=0.5;entryDx=0;entryDy=0;endArrow=open;endFill=0;startSize=8;endSize=8;" edge="1" parent="1" source="LKf0_QzgHsAnqF3-CHD4-118" target="LKf0_QzgHsAnqF3-CHD4-41">
          <mxGeometry relative="1" as="geometry" />
        </mxCell>
        <mxCell id="LKf0_QzgHsAnqF3-CHD4-118" value="Artikel ansehen" style="rounded=1;whiteSpace=wrap;html=1;fillColor=#dae8fc;strokeColor=#6c8ebf;" vertex="1" parent="1">
          <mxGeometry x="340" y="1426" width="100" height="50" as="geometry" />
        </mxCell>
        <mxCell id="LKf0_QzgHsAnqF3-CHD4-119" style="edgeStyle=orthogonalEdgeStyle;rounded=0;orthogonalLoop=1;jettySize=auto;html=1;entryX=0.5;entryY=1;entryDx=0;entryDy=0;endArrow=open;endFill=0;startSize=8;endSize=8;" edge="1" parent="1" source="LKf0_QzgHsAnqF3-CHD4-123">
          <mxGeometry relative="1" as="geometry">
            <mxPoint x="120" y="1476" as="targetPoint" />
            <Array as="points">
              <mxPoint x="240" y="1496" />
              <mxPoint x="120" y="1496" />
            </Array>
          </mxGeometry>
        </mxCell>
        <mxCell id="LKf0_QzgHsAnqF3-CHD4-120" value="[nicht gefunden]" style="edgeLabel;html=1;align=center;verticalAlign=middle;resizable=0;points=[];" vertex="1" connectable="0" parent="LKf0_QzgHsAnqF3-CHD4-119">
          <mxGeometry x="-0.1217" y="-2" relative="1" as="geometry">
            <mxPoint x="-2" y="16" as="offset" />
          </mxGeometry>
        </mxCell>
        <mxCell id="LKf0_QzgHsAnqF3-CHD4-121" style="edgeStyle=orthogonalEdgeStyle;rounded=0;orthogonalLoop=1;jettySize=auto;html=1;endArrow=open;endFill=0;startSize=8;endSize=8;" edge="1" parent="1" source="LKf0_QzgHsAnqF3-CHD4-123" target="LKf0_QzgHsAnqF3-CHD4-118">
          <mxGeometry relative="1" as="geometry" />
        </mxCell>
        <mxCell id="LKf0_QzgHsAnqF3-CHD4-122" value="[gefunden]" style="edgeLabel;html=1;align=center;verticalAlign=middle;resizable=0;points=[];" vertex="1" connectable="0" parent="LKf0_QzgHsAnqF3-CHD4-121">
          <mxGeometry x="-0.2971" relative="1" as="geometry">
            <mxPoint x="2" y="9" as="offset" />
          </mxGeometry>
        </mxCell>
        <mxCell id="LKf0_QzgHsAnqF3-CHD4-123" value="" style="rhombus;whiteSpace=wrap;html=1;fillColor=#1ba1e2;fontColor=#ffffff;strokeColor=#006EAF;" vertex="1" parent="1">
          <mxGeometry x="220" y="1431" width="40" height="40" as="geometry" />
        </mxCell>
        <mxCell id="LKf0_QzgHsAnqF3-CHD4-128" style="edgeStyle=orthogonalEdgeStyle;rounded=0;orthogonalLoop=1;jettySize=auto;html=1;entryX=0.5;entryY=0;entryDx=0;entryDy=0;endArrow=open;endFill=0;startSize=8;endSize=8;" edge="1" parent="1" source="LKf0_QzgHsAnqF3-CHD4-126" target="LKf0_QzgHsAnqF3-CHD4-92">
          <mxGeometry relative="1" as="geometry">
            <Array as="points">
              <mxPoint x="690" y="1532" />
              <mxPoint x="660" y="1532" />
            </Array>
          </mxGeometry>
        </mxCell>
        <mxCell id="LKf0_QzgHsAnqF3-CHD4-129" style="edgeStyle=orthogonalEdgeStyle;rounded=0;orthogonalLoop=1;jettySize=auto;html=1;entryX=0.5;entryY=0;entryDx=0;entryDy=0;endArrow=open;endFill=0;startSize=8;endSize=8;" edge="1" parent="1" source="LKf0_QzgHsAnqF3-CHD4-126" target="LKf0_QzgHsAnqF3-CHD4-93">
          <mxGeometry relative="1" as="geometry">
            <Array as="points">
              <mxPoint x="750" y="1532" />
              <mxPoint x="780" y="1532" />
            </Array>
          </mxGeometry>
        </mxCell>
        <mxCell id="LKf0_QzgHsAnqF3-CHD4-126" value="" style="html=1;points=[];perimeter=orthogonalPerimeter;fillColor=strokeColor;rotation=90;" vertex="1" parent="1">
          <mxGeometry x="717.5" y="1470" width="5" height="80" as="geometry" />
        </mxCell>
        <mxCell id="LKf0_QzgHsAnqF3-CHD4-134" style="edgeStyle=orthogonalEdgeStyle;rounded=0;orthogonalLoop=1;jettySize=auto;html=1;entryX=0.5;entryY=0;entryDx=0;entryDy=0;endArrow=open;endFill=0;startSize=8;endSize=8;" edge="1" parent="1" source="LKf0_QzgHsAnqF3-CHD4-131" target="LKf0_QzgHsAnqF3-CHD4-91">
          <mxGeometry relative="1" as="geometry" />
        </mxCell>
        <mxCell id="LKf0_QzgHsAnqF3-CHD4-131" value="" style="html=1;points=[];perimeter=orthogonalPerimeter;fillColor=strokeColor;rotation=90;" vertex="1" parent="1">
          <mxGeometry x="717.5" y="1605" width="5" height="80" as="geometry" />
        </mxCell>
        <mxCell id="LKf0_QzgHsAnqF3-CHD4-139" value="" style="ellipse;html=1;shape=endState;fillColor=strokeColor;" vertex="1" parent="1">
          <mxGeometry x="150" y="1795" width="40" height="40" as="geometry" />
        </mxCell>
        <mxCell id="LKf0_QzgHsAnqF3-CHD4-143" style="edgeStyle=orthogonalEdgeStyle;rounded=0;orthogonalLoop=1;jettySize=auto;html=1;entryX=0.5;entryY=0;entryDx=0;entryDy=0;fontSize=10;endArrow=none;endFill=0;startSize=8;endSize=8;dashed=1;curved=1;" edge="1" parent="1" source="LKf0_QzgHsAnqF3-CHD4-142" target="LKf0_QzgHsAnqF3-CHD4-98">
          <mxGeometry relative="1" as="geometry" />
        </mxCell>
        <mxCell id="LKf0_QzgHsAnqF3-CHD4-142" value="&lt;font style=&quot;font-size: 10px;&quot;&gt;Benutzer ist registriert&lt;br&gt;und angemeldet&lt;/font&gt;" style="shape=note2;boundedLbl=1;whiteSpace=wrap;html=1;size=18;verticalAlign=top;align=center;fillColor=#f5f5f5;fontColor=#333333;strokeColor=#666666;" vertex="1" parent="1">
          <mxGeometry x="-40" y="1340" width="111.43" height="60" as="geometry" />
        </mxCell>
      </root>
    </mxGraphModel>
  </diagram>
</mxfile>
